<svg id="visual" viewBox="0 0 900 450" width="900" height="450" xmlns="http://www.w3.org/2000/svg" xmlns:xlink="http://www.w3.org/1999/xlink" version="1.1"><rect x="0" y="0" width="900" height="450" fill="#4d5bc5"></rect><g transform="translate(463.1431577233013 190.04707077320316)"><path d="M165.3 -219.1C226.8 -182.9 297.9 -151.4 303.2 -105.5C308.4 -59.7 247.8 0.6 224.2 72.8C200.7 144.9 214.1 229 182.9 284.5C151.6 340 75.8 366.9 5.7 359C-64.5 351.2 -128.9 308.7 -185.7 261.5C-242.4 214.3 -291.4 162.5 -314.7 100.1C-337.9 37.7 -335.4 -35.2 -300 -83.1C-264.6 -130.9 -196.4 -153.6 -140.9 -191.8C-85.4 -229.9 -42.7 -283.5 4.6 -289.8C51.9 -296.1 103.8 -255.3 165.3 -219.1" fill="#57b8e4"></path></g></svg>