<svg id="visual" viewBox="0 0 900 600" width="900" height="600" xmlns="http://www.w3.org/2000/svg" xmlns:xlink="http://www.w3.org/1999/xlink" version="1.1"><rect x="0" y="0" width="900" height="600" fill="#000"></rect><defs><linearGradient id="grad1_0" x1="33.3%" y1="0%" x2="100%" y2="100%"><stop offset="20%" stop-color="#000000" stop-opacity="1"></stop><stop offset="80%" stop-color="#000000" stop-opacity="1"></stop></linearGradient></defs><defs><linearGradient id="grad2_0" x1="0%" y1="0%" x2="66.7%" y2="100%"><stop offset="20%" stop-color="#000000" stop-opacity="1"></stop><stop offset="80%" stop-color="#000000" stop-opacity="1"></stop></linearGradient></defs><g transform="translate(900, 0)"><path d="M0 432.7C-43.9 428.3 -87.9 424 -133.2 409.9C-178.5 395.8 -225.2 371.8 -238.6 328.5C-252.1 285.1 -232.3 222.2 -262.9 191C-293.6 159.8 -374.8 160.3 -411.5 133.7C-448.2 107.1 -440.4 53.6 -432.7 0L0 0Z" fill="#3d9562"></path></g><g transform="translate(0, 600)"><path d="M0 -432.7C32.6 -389.4 65.1 -346 110 -338.6C154.9 -331.1 212 -359.5 254.3 -350C296.6 -340.6 324 -293.4 344.6 -250.4C365.3 -207.4 379.2 -168.7 392.8 -127.6C406.3 -86.6 419.5 -43.3 432.7 0L0 0Z" fill="#3d9562"></path></g></svg>